<?xml version="1.0" encoding="UTF-8"?>
<svg width="512" height="512" viewBox="0 0 512 512" fill="none" xmlns="http://www.w3.org/2000/svg">
  <path d="M48 48h416v416H48V48z" fill="#F7DF1E"/>
  <path d="M338.626 373.066c8.286 13.547 19.076 23.534 38.153 23.534 16.025 0 26.267-8.014 26.267-19.075 0-13.275-10.514-17.97-28.212-25.712l-9.69-4.156c-27.94-11.878-46.47-26.811-46.47-58.323 0-29.028 22.152-51.18 56.702-51.18 24.62 0 42.32 8.559 55.05 31.255l-30.157 19.348c-6.613-11.878-13.77-16.57-24.893-16.57-11.334 0-18.532 7.197-18.532 16.57 0 11.606 7.198 16.297 23.808 23.534l9.69 4.156c32.91 14.092 51.442 28.484 51.442 60.811 0 34.809-27.396 53.885-64.196 53.885-35.97 0-59.191-17.154-70.525-39.578l31.518-18.26zM184.225 377.222c6.069 10.787 11.606 19.89 24.893 19.89 12.695 0 20.705-4.97 20.705-24.288V235.267h38.97v138.651c0 40.335-23.671 58.595-58.208 58.595-31.217 0-49.294-16.161-58.44-35.605l32.08-19.686z" fill="#000"/>
</svg>
