<?xml version="1.0" encoding="UTF-8"?>
<svg width="512" height="512" viewBox="0 0 512 512" fill="none" xmlns="http://www.w3.org/2000/svg">
  <path d="M48 48h416v416H48V48z" fill="#4479A1"/>
  <path d="M258.333 327.021h-19.167v-95.834c0-7.958-.666-13.416-2-16.375-1.333-2.958-3.5-4.437-6.5-4.437-2.333 0-4.5.75-6.5 2.25-2 1.5-3.417 3.625-4.25 6.375-.833 2.75-1.25 9.208-1.25 19.375v88.646h-19.167v-95.834c0-7.958-.666-13.416-2-16.375-1.333-2.958-3.583-4.437-6.75-4.437-2.25 0-4.375.75-6.375 2.25-2 1.5-3.417 3.625-4.25 6.375-.833 2.75-1.25 9.208-1.25 19.375v88.646h-19.167V200.354h19.167v18.521c2.417-7.042 5.208-12.146 8.375-15.312 3.167-3.167 7-4.75 11.5-4.75 4.917 0 9.042 1.375 12.375 4.125 3.333 2.75 5.75 6.708 7.25 11.875 2.583-7.042 5.5-12.146 8.75-15.312 3.25-3.167 7.167-4.75 11.75-4.75 6.083 0 11.042 2.125 14.875 6.375 3.833 4.25 5.75 10.625 5.75 19.125v106.771z" fill="#fff"/>
</svg>
